<svg width="375" height="228" viewBox="0 0 375 228" fill="none" xmlns="http://www.w3.org/2000/svg">
<g opacity="0.2" filter="url(#filter0_f_11921_14361)">
<path d="M106.921 176.519L41.1468 116.601C37.971 113.708 39.6814 108.422 43.95 107.937L244.045 85.224C245.312 85.0801 246.587 85.426 247.607 86.1907L331.577 149.11C335.244 151.858 333.592 157.679 329.029 158.091L110.738 177.802C109.342 177.928 107.957 177.463 106.921 176.519Z" fill="black"/>
</g>
<path d="M110.654 11.7L73.8535 100.3L243.654 85L291.454 0L110.654 11.7Z" fill="url(#paint0_linear_11921_14361)"/>
<path d="M260.654 97.4998L241.954 85.2998L69.8535 99.3998L88.0535 114.1L260.654 97.4998Z" fill="url(#paint1_linear_11921_14361)"/>
<path d="M300.654 128L297.354 128.3V130H300.654V128Z" fill="url(#paint2_linear_11921_14361)"/>
<path d="M241.953 85.2998L242.553 98.9998L297.353 145.7V128.3L300.653 128L241.953 85.2998Z" fill="url(#paint3_linear_11921_14361)"/>
<path d="M303.354 145.3L126.854 160.7L69.8535 113.1L242.554 99L303.354 145.3Z" fill="url(#paint4_linear_11921_14361)"/>
<path opacity="0.5" d="M257.054 110L242.554 99L69.8535 113.1L86.4535 124.6L257.054 110Z" fill="url(#paint5_linear_11921_14361)"/>
<path d="M124.354 160.4L127.354 160.1L127.654 143.1L124.354 143.4V160.4Z" fill="url(#paint6_linear_11921_14361)"/>
<path d="M223.754 152.699L221.954 137.199L220.454 135.899C220.354 140.199 217.254 143.899 213.554 144.199C211.054 144.399 208.854 143.099 207.654 140.899L204.854 154.399L223.754 152.699Z" fill="url(#paint7_linear_11921_14361)"/>
<path d="M221.953 137.2C221.853 141.5 218.753 145.2 215.053 145.5C211.353 145.8 208.253 142.7 208.153 138.4L126.853 145.5L126.753 162.6L303.253 147.2L303.353 130.1L221.953 137.2Z" fill="url(#paint8_linear_11921_14361)"/>
<path d="M126.853 145.499L125.353 144.199L125.053 161.099L126.853 162.499V145.499Z" fill="url(#paint9_linear_11921_14361)"/>
<path d="M244.753 85.3994V87.3994L297.353 128.299L300.653 127.999L244.753 85.3994Z" fill="#F5F5F5"/>
<path d="M84.7531 109.9H82.9531L124.353 143.4L127.653 143.1L84.8531 109.8C84.8531 109.9 84.7531 109.9 84.7531 109.9Z" fill="#F5F5F5"/>
<path d="M220.453 135.9L221.953 137.2L303.353 130L301.753 128.8L220.453 135.9Z" fill="#F5F5F5"/>
<path d="M206.654 137.1L125.354 144.2L126.854 145.5L208.254 138.4L206.654 137.1Z" fill="#F5F5F5"/>
<path d="M73.8535 100.299V109.099C73.8535 109.099 73.9535 111.199 74.7535 109.699L110.654 33.5994C111.554 32.0994 112.554 29.2994 112.554 27.3994L111.854 12.2994L110.654 11.8994L73.8535 100.299Z" fill="url(#paint10_linear_11921_14361)"/>
<path d="M72.4531 100.1V109.1C72.4531 109.1 72.7531 111.2 73.5531 109.7L109.453 33.5998C110.353 32.0998 111.553 29.0998 111.353 27.3998L110.653 11.7998L72.4531 100.1Z" fill="url(#paint11_linear_11921_14361)"/>
<path d="M76.3531 103.699L76.6531 103.099L72.4531 99.8994V100.099V101.499L76.3531 103.699Z" fill="url(#paint12_linear_11921_14361)"/>
<path d="M72.4535 100.1L72.8535 99.0996L69.8535 99.3996L124.354 143.4L127.654 143.1L72.2535 100.1H72.4535Z" fill="#F5F5F5"/>
<path d="M243.653 85L247.253 92.6C247.253 92.6 249.153 93.3 249.953 91.7L295.253 22.1C296.153 20.6 297.853 17.3 296.653 14.8C294.553 10.4 291.053 2 291.053 2L243.653 85Z" fill="url(#paint13_linear_11921_14361)"/>
<path d="M241.953 85.2996L246.653 92.3996C246.653 92.3996 247.953 93.2996 248.753 91.7996L294.053 22.1996C294.953 20.6996 296.653 17.3996 295.453 14.8996C293.353 10.4996 289.853 2.09961 289.853 2.09961L241.953 85.2996Z" fill="url(#paint14_linear_11921_14361)"/>
<path d="M203.753 0.700086C200.453 0.900086 197.053 3.10008 194.953 6.30008L194.653 9.80008L203.853 11.5001L209.153 9.50009L207.053 6.10009C208.353 3.80009 206.953 0.500086 203.753 0.700086Z" fill="url(#paint15_linear_11921_14361)"/>
<path d="M297.353 8.79941L291.453 1.39941L206.953 6.39941L206.653 6.99941C207.753 9.59941 205.953 11.8994 202.653 12.0994C199.353 12.2994 195.853 10.3994 194.853 7.79941L110.553 11.7994V13.1994L113.953 21.2994C113.953 21.2994 116.253 26.1994 122.653 26.1994L295.353 14.5994C298.053 14.3994 298.353 10.4994 297.353 8.79941Z" fill="url(#paint16_linear_11921_14361)"/>
<path d="M296.853 7.9L291.453 0L206.753 5.5C207.853 8.1 206.053 10.4 202.753 10.6C199.453 10.8 195.953 8.9 194.953 6.3L110.653 11.7L114.453 20C114.453 20 116.653 24.9 122.753 25.1L295.353 13.6C298.053 13.5 298.753 10.9 296.853 7.9Z" fill="url(#paint17_linear_11921_14361)"/>
<path d="M204.154 1.59935C200.854 1.79935 197.454 3.99935 195.354 7.19935L202.054 6.79935L207.054 6.39935C208.254 4.09935 207.454 1.39935 204.154 1.59935Z" fill="url(#paint18_linear_11921_14361)"/>
<path d="M69.8535 99.3994V113.899L124.354 160.399V143.399L69.8535 99.3994Z" fill="url(#paint19_linear_11921_14361)"/>
<defs>
<filter id="filter0_f_11921_14361" x="-10.4922" y="35.1919" width="394.077" height="192.63" filterUnits="userSpaceOnUse" color-interpolation-filters="sRGB">
<feFlood flood-opacity="0" result="BackgroundImageFix"/>
<feBlend mode="normal" in="SourceGraphic" in2="BackgroundImageFix" result="shape"/>
<feGaussianBlur stdDeviation="25" result="effect1_foregroundBlur_11921_14361"/>
</filter>
<linearGradient id="paint0_linear_11921_14361" x1="179.859" y1="12.0597" x2="185.532" y2="89.9703" gradientUnits="userSpaceOnUse">
<stop stop-color="#A9A6A6"/>
<stop offset="0.1608" stop-color="#B9B7B7"/>
<stop offset="0.3845" stop-color="#C8C7C7"/>
<stop offset="0.6344" stop-color="#D1D1D1"/>
<stop offset="0.9606" stop-color="#D4D4D4"/>
<stop offset="1" stop-color="#C2C2C2"/>
</linearGradient>
<linearGradient id="paint1_linear_11921_14361" x1="164.229" y1="89.4943" x2="166.232" y2="106.852" gradientUnits="userSpaceOnUse">
<stop stop-color="#D8D7D8"/>
<stop offset="0.00577516" stop-color="#D8D7D8"/>
<stop offset="0.4433" stop-color="#DAD9DA"/>
<stop offset="1" stop-color="#C1C0C1"/>
</linearGradient>
<linearGradient id="paint2_linear_11921_14361" x1="299.015" y1="128.264" x2="299.015" y2="129.573" gradientUnits="userSpaceOnUse">
<stop stop-color="#DAD9DA"/>
<stop offset="1" stop-color="#8B8B8B"/>
</linearGradient>
<linearGradient id="paint3_linear_11921_14361" x1="268.107" y1="117.709" x2="276.686" y2="105.421" gradientUnits="userSpaceOnUse">
<stop stop-color="#B0B0B0"/>
<stop offset="1" stop-color="#DAD9DA"/>
</linearGradient>
<linearGradient id="paint4_linear_11921_14361" x1="186.057" y1="124.422" x2="189.951" y2="158.498" gradientUnits="userSpaceOnUse">
<stop stop-color="#E6E5E6"/>
<stop offset="1" stop-color="#B1B1B1"/>
</linearGradient>
<linearGradient id="paint5_linear_11921_14361" x1="162.75" y1="105.383" x2="163.962" y2="115.991" gradientUnits="userSpaceOnUse">
<stop stop-color="#B1B1B1"/>
<stop offset="1" stop-color="#E6E5E6"/>
</linearGradient>
<linearGradient id="paint6_linear_11921_14361" x1="127.329" y1="142.927" x2="126.687" y2="146.697" gradientUnits="userSpaceOnUse">
<stop stop-color="#DAD9DA"/>
<stop offset="1" stop-color="#B1B1B1"/>
</linearGradient>
<linearGradient id="paint7_linear_11921_14361" x1="221.774" y1="133.077" x2="216.336" y2="145.361" gradientUnits="userSpaceOnUse">
<stop stop-color="#D1D1D1"/>
<stop offset="1" stop-color="white"/>
</linearGradient>
<linearGradient id="paint8_linear_11921_14361" x1="99.5098" y1="112.963" x2="260.385" y2="159.341" gradientUnits="userSpaceOnUse">
<stop stop-color="#E4E4E4"/>
<stop offset="1" stop-color="#D4D3D3"/>
</linearGradient>
<linearGradient id="paint9_linear_11921_14361" x1="130.004" y1="150.207" x2="121.158" y2="157.316" gradientUnits="userSpaceOnUse">
<stop stop-color="#DEDDDE"/>
<stop offset="1" stop-color="#BDBABC"/>
</linearGradient>
<linearGradient id="paint10_linear_11921_14361" x1="125.604" y1="53.7609" x2="61.3671" y2="67.726" gradientUnits="userSpaceOnUse">
<stop stop-color="#8B8B8B"/>
<stop offset="1" stop-color="#C8C8C8"/>
</linearGradient>
<linearGradient id="paint11_linear_11921_14361" x1="124.517" y1="53.8602" x2="60.0241" y2="67.881" gradientUnits="userSpaceOnUse">
<stop stop-color="#DEDDDE"/>
<stop offset="1" stop-color="#C8C6C7"/>
</linearGradient>
<linearGradient id="paint12_linear_11921_14361" x1="74.642" y1="101.494" x2="74.1265" y2="102.166" gradientUnits="userSpaceOnUse">
<stop stop-color="white"/>
<stop offset="1" stop-color="#2B2B2B"/>
</linearGradient>
<linearGradient id="paint13_linear_11921_14361" x1="307.527" y1="39.2086" x2="233.26" y2="55.3543" gradientUnits="userSpaceOnUse">
<stop stop-color="#8B8B8B"/>
<stop offset="1" stop-color="#DAD9DA"/>
</linearGradient>
<linearGradient id="paint14_linear_11921_14361" x1="306.322" y1="39.1836" x2="231.534" y2="55.4424" gradientUnits="userSpaceOnUse">
<stop stop-color="#9A9898"/>
<stop offset="1" stop-color="#C6C6C6"/>
</linearGradient>
<linearGradient id="paint15_linear_11921_14361" x1="201.22" y1="0.932996" x2="201.9" y2="10.8461" gradientUnits="userSpaceOnUse">
<stop offset="0.0197044" stop-color="#F4F4F4"/>
<stop offset="0.4581" stop-color="#D4D4D4"/>
<stop offset="0.5714" stop-color="#A9A6A6"/>
</linearGradient>
<linearGradient id="paint16_linear_11921_14361" x1="204.777" y1="17.8196" x2="204.877" y2="18.9309" gradientUnits="userSpaceOnUse">
<stop stop-color="#CFCECF"/>
<stop offset="1" stop-color="#9C9A9B"/>
</linearGradient>
<linearGradient id="paint17_linear_11921_14361" x1="197.404" y1="-5.87859" x2="202.433" y2="71.6997" gradientUnits="userSpaceOnUse">
<stop stop-color="#FCFCFC"/>
<stop offset="1" stop-color="#DAD9D9"/>
</linearGradient>
<linearGradient id="paint18_linear_11921_14361" x1="201.181" y1="1.53485" x2="201.576" y2="7.29269" gradientUnits="userSpaceOnUse">
<stop stop-color="#D4D4D4"/>
<stop offset="1" stop-color="#A9A6A6"/>
</linearGradient>
<linearGradient id="paint19_linear_11921_14361" x1="106.131" y1="122.631" x2="87.2078" y2="137.838" gradientUnits="userSpaceOnUse">
<stop stop-color="#DEDDDE"/>
<stop offset="1" stop-color="#BDBABC"/>
</linearGradient>
</defs>
</svg>
